<?xml version="1.0" encoding="UTF-8" standalone="no"?>
<!DOCTYPE svg PUBLIC "-//W3C//DTD SVG 1.1//EN"
 "http://www.w3.org/Graphics/SVG/1.1/DTD/svg11.dtd">
<!-- Generated by graphviz version 2.38.0 (20140413.2041)
 -->
<!-- Title: G Pages: 1 -->
<svg width="1432pt" height="1571pt"
 viewBox="0.00 0.00 1432.00 1571.00" xmlns="http://www.w3.org/2000/svg" xmlns:xlink="http://www.w3.org/1999/xlink">
<g id="graph0" class="graph" transform="scale(1 1) rotate(0) translate(4 1567)">
<title>G</title>
<polygon fill="none" stroke="none" points="-4,4 -4,-1567 1428,-1567 1428,4 -4,4"/>
<g id="clust1" class="cluster"><title>cluster_25</title>
<polygon fill="none" stroke="black" points="733.567,-470.092 733.567,-921.092 1166.57,-921.092 1166.57,-470.092 733.567,-470.092"/>
<text text-anchor="middle" x="950.067" y="-905.892" font-family="arial" font-size="14.00">Table</text>
</g>
<g id="clust2" class="cluster"><title>cluster_27</title>
<polygon fill="none" stroke="black" points="365.314,-0.435587 365.314,-273.436 627.314,-273.436 627.314,-0.435587 365.314,-0.435587"/>
<text text-anchor="middle" x="496.314" y="-258.236" font-family="arial" font-size="14.00">Trenders</text>
</g>
<g id="clust5" class="cluster"><title>cluster_10</title>
<polygon fill="none" stroke="black" points="211.787,-1120.66 211.787,-1342.66 470.787,-1342.66 470.787,-1120.66 211.787,-1120.66"/>
<text text-anchor="middle" x="341.287" y="-1327.46" font-family="arial" font-size="14.00">Nova</text>
</g>
<g id="clust6" class="cluster"><title>cluster_54</title>
<polygon fill="none" stroke="black" points="78.8229,-1439.66 78.8229,-1562.66 259.823,-1562.66 259.823,-1439.66 78.8229,-1439.66"/>
<text text-anchor="middle" x="169.323" y="-1547.46" font-family="arial" font-size="14.00">Valerie/paige</text>
</g>
<g id="clust4" class="cluster"><title>cluster_62</title>
<polygon fill="none" stroke="black" points="897.19,-122.894 897.19,-237.894 973.19,-237.894 973.19,-122.894 897.19,-122.894"/>
<text text-anchor="middle" x="935.19" y="-222.694" font-family="arial" font-size="14.00">Lienia</text>
</g>
<g id="clust3" class="cluster"><title>cluster_28</title>
<polygon fill="none" stroke="black" points="516.298,-313.544 516.298,-468.544 693.298,-468.544 693.298,-313.544 516.298,-313.544"/>
<text text-anchor="middle" x="604.798" y="-453.344" font-family="arial" font-size="14.00">Dawn</text>
</g>
<g id="clust7" class="cluster"><title>cluster_57</title>
<polygon fill="none" stroke="black" points="238.147,-532.69 238.147,-819.69 502.147,-819.69 502.147,-532.69 238.147,-532.69"/>
<text text-anchor="middle" x="370.147" y="-804.49" font-family="arial" font-size="14.00">Campfire</text>
</g>
<!-- 29 -->
<g id="node1" class="node"><title>29</title>
<ellipse fill="#f7a8b8" stroke="black" cx="782.892" cy="-811.087" rx="40.8928" ry="18"/>
<text text-anchor="middle" x="782.892" y="-807.387" font-family="arial" font-size="14.00">Juniper</text>
</g>
<!-- 32 -->
<g id="node2" class="node"><title>32</title>
<ellipse fill="#f7a8b8" stroke="black" cx="876.712" cy="-749.388" rx="36.2938" ry="18"/>
<text text-anchor="middle" x="876.712" y="-745.688" font-family="arial" font-size="14.00">Ravyn</text>
</g>
<!-- 29&#45;&#45;32 -->
<g id="edge104" class="edge"><title>29&#45;&#45;32</title>
<path fill="none" stroke="#ff0000" d="M806.083,-795.836C820.951,-786.058 840.134,-773.443 854.754,-763.828"/>
</g>
<!-- 33 -->
<g id="node3" class="node"><title>33</title>
<ellipse fill="#55cdfc" stroke="black" cx="1026.71" cy="-760.388" rx="42.7926" ry="18"/>
<text text-anchor="middle" x="1026.71" y="-756.688" font-family="arial" font-size="14.00">Domino</text>
</g>
<!-- 29&#45;&#45;33 -->
<g id="edge19" class="edge"><title>29&#45;&#45;33</title>
<path fill="none" stroke="#ff0000" d="M819.923,-803.387C865.35,-793.941 941.994,-778.004 988.122,-768.412"/>
</g>
<!-- 76 -->
<g id="node73" class="node"><title>76</title>
<ellipse fill="#f7a8b8" stroke="black" cx="722.223" cy="-19.7134" rx="32.4942" ry="18"/>
<text text-anchor="middle" x="722.223" y="-16.0134" font-family="arial" font-size="14.00">Dana</text>
</g>
<!-- 29&#45;&#45;76 -->
<g id="edge83" class="edge"><title>29&#45;&#45;76</title>
<path fill="none" stroke="#ff0000" d="M781.51,-793.071C773.371,-686.894 731.736,-143.802 723.602,-37.7012"/>
</g>
<!-- 63 -->
<g id="node7" class="node"><title>63</title>
<ellipse fill="black" stroke="black" cx="911.297" cy="-871.922" rx="47.3916" ry="18"/>
<text text-anchor="middle" x="911.297" y="-868.222" font-family="arial" font-size="14.00">Marianna</text>
</g>
<!-- 32&#45;&#45;63 -->
<g id="edge66" class="edge"><title>32&#45;&#45;63</title>
<path fill="none" stroke="#ff0000" d="M881.815,-767.468C888.354,-790.635 899.624,-830.565 906.173,-853.768"/>
</g>
<!-- 65 -->
<g id="node9" class="node"><title>65</title>
<ellipse fill="#f7a8b8" stroke="black" cx="850.712" cy="-584.388" rx="32.4942" ry="18"/>
<text text-anchor="middle" x="850.712" y="-580.688" font-family="arial" font-size="14.00">Adair</text>
</g>
<!-- 32&#45;&#45;65 -->
<g id="edge73" class="edge"><title>32&#45;&#45;65</title>
<path fill="none" stroke="#8e7cc3" d="M873.88,-731.416C868.879,-699.677 858.54,-634.061 853.541,-602.338"/>
</g>
<!-- 66 -->
<g id="node10" class="node"><title>66</title>
<ellipse fill="#f7a8b8" stroke="black" cx="1089.71" cy="-595.388" rx="39.7935" ry="18"/>
<text text-anchor="middle" x="1089.71" y="-591.688" font-family="arial" font-size="14.00">Zephyr</text>
</g>
<!-- 32&#45;&#45;66 -->
<g id="edge11" class="edge"><title>32&#45;&#45;66</title>
<path fill="none" stroke="#8e7cc3" d="M897.523,-734.341C938.139,-704.976 1027.57,-640.319 1068.5,-610.724"/>
</g>
<!-- 34 -->
<g id="node4" class="node"><title>34</title>
<ellipse fill="#f7a8b8" stroke="black" cx="812.712" cy="-870.388" rx="27.0966" ry="18"/>
<text text-anchor="middle" x="812.712" y="-866.688" font-family="arial" font-size="14.00">Noa</text>
</g>
<!-- 33&#45;&#45;34 -->
<g id="edge8" class="edge"><title>33&#45;&#45;34</title>
<path fill="none" stroke="#8e7cc3" d="M999.174,-774.543C956.051,-796.709 873.481,-839.152 834.33,-859.276"/>
</g>
<!-- 59 -->
<g id="node5" class="node"><title>59</title>
<ellipse fill="#55cdfc" stroke="black" cx="1046.41" cy="-827.943" rx="38.1938" ry="18"/>
<text text-anchor="middle" x="1046.41" y="-824.243" font-family="arial" font-size="14.00">Alistair</text>
</g>
<!-- 33&#45;&#45;59 -->
<g id="edge22" class="edge"><title>33&#45;&#45;59</title>
<path fill="none" stroke="#8e7cc3" d="M1031.99,-778.492C1034.82,-788.184 1038.29,-800.09 1041.11,-809.79"/>
</g>
<!-- 60 -->
<g id="node6" class="node"><title>60</title>
<ellipse fill="#55cdfc" stroke="black" cx="874.712" cy="-694.388" rx="34.394" ry="18"/>
<text text-anchor="middle" x="874.712" y="-690.688" font-family="arial" font-size="14.00">4teen</text>
</g>
<!-- 33&#45;&#45;60 -->
<g id="edge23" class="edge"><title>33&#45;&#45;60</title>
<path fill="none" stroke="#8e7cc3" d="M996.682,-747.349C968.996,-735.327 928.273,-717.645 901.624,-706.073"/>
</g>
<!-- 33&#45;&#45;65 -->
<g id="edge25" class="edge"><title>33&#45;&#45;65</title>
<path fill="none" stroke="#8e7cc3" d="M1009.84,-743.512C975.852,-709.527 899.596,-633.271 866.519,-600.194"/>
</g>
<!-- 33&#45;&#45;66 -->
<g id="edge7" class="edge"><title>33&#45;&#45;66</title>
<path fill="none" stroke="#8e7cc3" d="M1033.57,-742.416C1045.69,-710.677 1070.75,-645.061 1082.86,-613.338"/>
</g>
<!-- 67 -->
<g id="node11" class="node"><title>67</title>
<ellipse fill="black" stroke="black" cx="988.712" cy="-650.388" rx="48.9926" ry="18"/>
<text text-anchor="middle" x="988.712" y="-646.688" font-family="arial" font-size="14.00">Valentine</text>
</g>
<!-- 33&#45;&#45;67 -->
<g id="edge9" class="edge"><title>33&#45;&#45;67</title>
<path fill="none" stroke="#8e7cc3" d="M1020.44,-742.224C1013.4,-721.843 1002.04,-688.972 994.997,-668.579"/>
</g>
<!-- 74 -->
<g id="node16" class="node"><title>74</title>
<ellipse fill="#f7a8b8" stroke="black" cx="986.712" cy="-705.388" rx="47.3916" ry="18"/>
<text text-anchor="middle" x="986.712" y="-701.688" font-family="arial" font-size="14.00">Gabriella</text>
</g>
<!-- 33&#45;&#45;74 -->
<g id="edge92" class="edge"><title>33&#45;&#45;74</title>
<path fill="none" stroke="#8e7cc3" d="M1014.06,-742.986C1009.39,-736.566 1004.1,-729.293 999.423,-722.866"/>
</g>
<!-- 34&#45;&#45;59 -->
<g id="edge28" class="edge"><title>34&#45;&#45;59</title>
<path fill="none" stroke="#8e7cc3" d="M839.066,-865.602C881.084,-857.97 963.328,-843.033 1010.63,-834.442"/>
</g>
<!-- 34&#45;&#45;65 -->
<g id="edge70" class="edge"><title>34&#45;&#45;65</title>
<path fill="none" stroke="#8e7cc3" d="M815.147,-852.062C822.011,-800.405 841.459,-654.031 848.298,-602.561"/>
</g>
<!-- 34&#45;&#45;66 -->
<g id="edge14" class="edge"><title>34&#45;&#45;66</title>
<path fill="none" stroke="#8e7cc3" d="M828,-855.211C875.975,-807.582 1023.31,-661.308 1073.09,-611.894"/>
</g>
<!-- 59&#45;&#45;60 -->
<g id="edge71" class="edge"><title>59&#45;&#45;60</title>
<path fill="none" stroke="#8e7cc3" d="M1026.37,-812.362C993.114,-786.489 926.912,-734.993 894.09,-709.461"/>
</g>
<!-- 59&#45;&#45;65 -->
<g id="edge27" class="edge"><title>59&#45;&#45;65</title>
<path fill="none" stroke="#8e7cc3" d="M1032.65,-810.817C996.54,-765.882 899.437,-645.03 863.94,-600.851"/>
</g>
<!-- 59&#45;&#45;67 -->
<g id="edge96" class="edge"><title>59&#45;&#45;67</title>
<path fill="none" stroke="#8e7cc3" d="M1040.56,-809.941C1029.5,-775.91 1005.65,-702.506 994.577,-668.438"/>
</g>
<!-- 70 -->
<g id="node14" class="node"><title>70</title>
<ellipse fill="black" stroke="black" cx="1078.71" cy="-705.388" rx="29.4969" ry="18"/>
<text text-anchor="middle" x="1078.71" y="-701.688" font-family="arial" font-size="14.00">Nico</text>
</g>
<!-- 59&#45;&#45;70 -->
<g id="edge95" class="edge"><title>59&#45;&#45;70</title>
<path fill="none" stroke="#8e7cc3" d="M1051.17,-809.86C1057.28,-786.689 1067.81,-746.753 1073.93,-723.546"/>
</g>
<!-- 59&#45;&#45;74 -->
<g id="edge93" class="edge"><title>59&#45;&#45;74</title>
<path fill="none" stroke="#8e7cc3" d="M1037.85,-810.384C1026.57,-787.219 1006.81,-746.66 995.443,-723.313"/>
</g>
<!-- 61 -->
<g id="node35" class="node"><title>61</title>
<ellipse fill="black" stroke="black" cx="934.892" cy="-188.46" rx="29.795" ry="18"/>
<text text-anchor="middle" x="934.892" y="-184.76" font-family="arial" font-size="14.00">Sam</text>
</g>
<!-- 59&#45;&#45;61 -->
<g id="edge24" class="edge"><title>59&#45;&#45;61</title>
<path fill="none" stroke="#ff0000" d="M1043.25,-809.835C1027.12,-717.353 954.084,-298.52 938.022,-206.41"/>
</g>
<!-- 63&#45;&#45;65 -->
<g id="edge72" class="edge"><title>63&#45;&#45;65</title>
<path fill="none" stroke="#8e7cc3" d="M907.507,-853.936C896.627,-802.298 865.379,-653.997 854.501,-602.368"/>
</g>
<!-- 63&#45;&#45;66 -->
<g id="edge12" class="edge"><title>63&#45;&#45;66</title>
<path fill="none" stroke="#8e7cc3" d="M922.729,-854.203C954.954,-804.255 1046.27,-662.726 1078.38,-612.96"/>
</g>
<!-- 63&#45;&#45;67 -->
<g id="edge13" class="edge"><title>63&#45;&#45;67</title>
<path fill="none" stroke="#8e7cc3" d="M917.632,-853.793C932.185,-812.148 967.865,-710.044 982.398,-668.457"/>
</g>
<!-- 68 -->
<g id="node12" class="node"><title>68</title>
<ellipse fill="black" stroke="black" cx="984.712" cy="-540.388" rx="34.394" ry="18"/>
<text text-anchor="middle" x="984.712" y="-536.688" font-family="arial" font-size="14.00">Aleph</text>
</g>
<!-- 63&#45;&#45;68 -->
<g id="edge67" class="edge"><title>63&#45;&#45;68</title>
<path fill="none" stroke="#8e7cc3" d="M915.348,-853.625C928.184,-795.661 967.855,-616.514 980.673,-558.628"/>
</g>
<!-- 64 -->
<g id="node8" class="node"><title>64</title>
<ellipse fill="#f7a8b8" stroke="black" cx="1092.71" cy="-650.388" rx="32.4942" ry="18"/>
<text text-anchor="middle" x="1092.71" y="-646.688" font-family="arial" font-size="14.00">Miino</text>
</g>
<!-- 65&#45;&#45;66 -->
<g id="edge94" class="edge"><title>65&#45;&#45;66</title>
<path fill="none" stroke="#8e7cc3" d="M883.443,-585.894C926.91,-587.895 1003.61,-591.425 1050.23,-593.571"/>
</g>
<!-- 65&#45;&#45;67 -->
<g id="edge16" class="edge"><title>65&#45;&#45;67</title>
<path fill="none" stroke="#8e7cc3" d="M875.384,-596.187C898.642,-607.311 933.553,-624.007 958.476,-635.927"/>
</g>
<!-- 65&#45;&#45;68 -->
<g id="edge10" class="edge"><title>65&#45;&#45;68</title>
<path fill="none" stroke="#8e7cc3" d="M878.803,-575.164C901.212,-567.806 932.509,-557.529 955.267,-550.057"/>
</g>
<!-- 65&#45;&#45;70 -->
<g id="edge15" class="edge"><title>65&#45;&#45;70</title>
<path fill="none" stroke="#8e7cc3" d="M874.254,-596.881C918.399,-620.309 1013.05,-670.542 1056.31,-693.5"/>
</g>
<!-- 66&#45;&#45;67 -->
<g id="edge69" class="edge"><title>66&#45;&#45;67</title>
<path fill="none" stroke="#8e7cc3" d="M1064.23,-609.267C1049.62,-617.223 1031.27,-627.213 1016.32,-635.354"/>
</g>
<!-- 66&#45;&#45;68 -->
<g id="edge68" class="edge"><title>66&#45;&#45;68</title>
<path fill="none" stroke="#8e7cc3" d="M1063.49,-581.651C1046.84,-572.933 1025.45,-561.729 1009.16,-553.196"/>
</g>
<!-- 71 -->
<g id="node15" class="node"><title>71</title>
<ellipse fill="black" stroke="black" cx="870.712" cy="-804.388" rx="30.5947" ry="18"/>
<text text-anchor="middle" x="870.712" y="-800.688" font-family="arial" font-size="14.00">Ivory</text>
</g>
<!-- 67&#45;&#45;71 -->
<g id="edge26" class="edge"><title>67&#45;&#45;71</title>
<path fill="none" stroke="#2a2a2a" d="M975.406,-667.754C952.502,-697.646 905.926,-758.431 883.433,-787.786"/>
</g>
<!-- 69 -->
<g id="node13" class="node"><title>69</title>
<ellipse fill="#f7a8b8" stroke="black" cx="1131.71" cy="-859.388" rx="27" ry="18"/>
<text text-anchor="middle" x="1131.71" y="-855.688" font-family="arial" font-size="14.00">Eva</text>
</g>
<!-- 75 -->
<g id="node17" class="node"><title>75</title>
<ellipse fill="#f7a8b8" stroke="black" cx="1131.71" cy="-804.388" rx="27.0966" ry="18"/>
<text text-anchor="middle" x="1131.71" y="-800.688" font-family="arial" font-size="14.00">Keir</text>
</g>
<!-- 77 -->
<g id="node18" class="node"><title>77</title>
<ellipse fill="#f7a8b8" stroke="black" cx="874.712" cy="-639.388" rx="34.394" ry="18"/>
<text text-anchor="middle" x="874.712" y="-635.688" font-family="arial" font-size="14.00">Squid</text>
</g>
<!-- 78 -->
<g id="node19" class="node"><title>78</title>
<ellipse fill="black" stroke="black" cx="1068.71" cy="-540.388" rx="30.5947" ry="18"/>
<text text-anchor="middle" x="1068.71" y="-536.688" font-family="arial" font-size="14.00">Elina</text>
</g>
<!-- 79 -->
<g id="node20" class="node"><title>79</title>
<ellipse fill="#f7a8b8" stroke="black" cx="958.712" cy="-815.388" rx="29.795" ry="18"/>
<text text-anchor="middle" x="958.712" y="-811.688" font-family="arial" font-size="14.00">Deja</text>
</g>
<!-- 80 -->
<g id="node21" class="node"><title>80</title>
<ellipse fill="#f7a8b8" stroke="black" cx="988.712" cy="-595.388" rx="38.1938" ry="18"/>
<text text-anchor="middle" x="988.712" y="-591.688" font-family="arial" font-size="14.00">Parvati</text>
</g>
<!-- 36 -->
<g id="node22" class="node"><title>36</title>
<ellipse fill="#f7a8b8" stroke="black" cx="464.768" cy="-120.421" rx="27" ry="18"/>
<text text-anchor="middle" x="464.768" y="-116.721" font-family="arial" font-size="14.00">Alix</text>
</g>
<!-- 37 -->
<g id="node23" class="node"><title>37</title>
<ellipse fill="#f7a8b8" stroke="black" cx="462.459" cy="-176.732" rx="40.8928" ry="18"/>
<text text-anchor="middle" x="462.459" y="-173.032" font-family="arial" font-size="14.00">Ditto(d)</text>
</g>
<!-- 36&#45;&#45;37 -->
<g id="edge5" class="edge"><title>36&#45;&#45;37</title>
<path fill="none" stroke="#2a2a2a" d="M464.025,-138.548C463.761,-144.978 463.464,-152.211 463.201,-158.639"/>
</g>
<!-- 38 -->
<g id="node24" class="node"><title>38</title>
<ellipse fill="#f7a8b8" stroke="black" cx="557.459" cy="-176.732" rx="40.0939" ry="18"/>
<text text-anchor="middle" x="557.459" y="-173.032" font-family="arial" font-size="14.00">Ditto(h)</text>
</g>
<!-- 36&#45;&#45;38 -->
<g id="edge4" class="edge"><title>36&#45;&#45;38</title>
<path fill="none" stroke="#2a2a2a" d="M484.881,-132.64C499.15,-141.308 518.367,-152.983 533.442,-162.141"/>
</g>
<!-- 39 -->
<g id="node25" class="node"><title>39</title>
<ellipse fill="#55cdfc" stroke="black" cx="586.459" cy="-26.7318" rx="27" ry="18"/>
<text text-anchor="middle" x="586.459" y="-23.0318" font-family="arial" font-size="14.00">Ash</text>
</g>
<!-- 40 -->
<g id="node26" class="node"><title>40</title>
<ellipse fill="#f7a8b8" stroke="black" cx="546.459" cy="-80.7318" rx="41.6928" ry="18"/>
<text text-anchor="middle" x="546.459" y="-77.0318" font-family="arial" font-size="14.00">Claudia</text>
</g>
<!-- 41 -->
<g id="node27" class="node"><title>41</title>
<ellipse fill="#f7a8b8" stroke="black" cx="592.459" cy="-224.732" rx="27" ry="18"/>
<text text-anchor="middle" x="592.459" y="-221.032" font-family="arial" font-size="14.00">Kl</text>
</g>
<!-- 42 -->
<g id="node28" class="node"><title>42</title>
<ellipse fill="#f7a8b8" stroke="black" cx="403.459" cy="-32.7318" rx="30.5947" ry="18"/>
<text text-anchor="middle" x="403.459" y="-29.0318" font-family="arial" font-size="14.00">June</text>
</g>
<!-- 43 -->
<g id="node29" class="node"><title>43</title>
<ellipse fill="#f7a8b8" stroke="black" cx="545.459" cy="-128.732" rx="40.0939" ry="18"/>
<text text-anchor="middle" x="545.459" y="-125.032" font-family="arial" font-size="14.00">Connie</text>
</g>
<!-- 44 -->
<g id="node30" class="node"><title>44</title>
<ellipse fill="black" stroke="black" cx="503.459" cy="-32.7318" rx="40.0939" ry="18"/>
<text text-anchor="middle" x="503.459" y="-29.0318" font-family="arial" font-size="14.00">Sophie</text>
</g>
<!-- 45 -->
<g id="node31" class="node"><title>45</title>
<ellipse fill="black" stroke="black" cx="400.459" cy="-128.732" rx="27" ry="18"/>
<text text-anchor="middle" x="400.459" y="-125.032" font-family="arial" font-size="14.00">Cat</text>
</g>
<!-- 46 -->
<g id="node32" class="node"><title>46</title>
<ellipse fill="#f7a8b8" stroke="black" cx="652.443" cy="-339.84" rx="33.2948" ry="18"/>
<text text-anchor="middle" x="652.443" y="-336.14" font-family="arial" font-size="14.00">Maud</text>
</g>
<!-- 47 -->
<g id="node33" class="node"><title>47</title>
<ellipse fill="#f7a8b8" stroke="black" cx="633.443" cy="-419.84" rx="33.5952" ry="18"/>
<text text-anchor="middle" x="633.443" y="-416.14" font-family="arial" font-size="14.00">Hazel</text>
</g>
<!-- 48 -->
<g id="node34" class="node"><title>48</title>
<ellipse fill="#f7a8b8" stroke="black" cx="566.443" cy="-369.84" rx="42.4939" ry="18"/>
<text text-anchor="middle" x="566.443" y="-366.14" font-family="arial" font-size="14.00">Autumn</text>
</g>
<!-- 61&#45;&#45;63 -->
<g id="edge6" class="edge"><title>61&#45;&#45;63</title>
<path fill="none" stroke="#ff0000" d="M934.261,-206.741C930.911,-303.755 915.246,-757.531 911.919,-853.902"/>
</g>
<!-- 49 -->
<g id="node36" class="node"><title>49</title>
<ellipse fill="#f7a8b8" stroke="black" cx="340.932" cy="-1146.96" rx="51.1914" ry="18"/>
<text text-anchor="middle" x="340.932" y="-1143.26" font-family="arial" font-size="14.00">Hypnoslut</text>
</g>
<!-- 50 -->
<g id="node37" class="node"><title>50</title>
<ellipse fill="#f7a8b8" stroke="black" cx="288.932" cy="-1195.96" rx="68.7879" ry="18"/>
<text text-anchor="middle" x="288.932" y="-1192.26" font-family="arial" font-size="14.00">Mistress Nova</text>
</g>
<!-- 51 -->
<g id="node38" class="node"><title>51</title>
<ellipse fill="#f7a8b8" stroke="black" cx="274.932" cy="-1258.96" rx="27.0966" ry="18"/>
<text text-anchor="middle" x="274.932" y="-1255.26" font-family="arial" font-size="14.00">Brat</text>
</g>
<!-- 52 -->
<g id="node39" class="node"><title>52</title>
<ellipse fill="#f7a8b8" stroke="black" cx="414.932" cy="-1293.96" rx="48.1917" ry="18"/>
<text text-anchor="middle" x="414.932" y="-1290.26" font-family="arial" font-size="14.00">Engineer</text>
</g>
<!-- 72 -->
<g id="node40" class="node"><title>72</title>
<ellipse fill="#f7a8b8" stroke="black" cx="376.932" cy="-1244.96" rx="59.2899" ry="18"/>
<text text-anchor="middle" x="376.932" y="-1241.26" font-family="arial" font-size="14.00">Some Nova</text>
</g>
<!-- 55 -->
<g id="node41" class="node"><title>55</title>
<ellipse fill="#f7a8b8" stroke="black" cx="126.527" cy="-1474.05" rx="39.7935" ry="18"/>
<text text-anchor="middle" x="126.527" y="-1470.35" font-family="arial" font-size="14.00">Valerie</text>
</g>
<!-- 56 -->
<g id="node42" class="node"><title>56</title>
<ellipse fill="#f7a8b8" stroke="black" cx="216.968" cy="-1465.95" rx="34.394" ry="18"/>
<text text-anchor="middle" x="216.968" y="-1462.25" font-family="arial" font-size="14.00">Paige</text>
</g>
<!-- 55&#45;&#45;56 -->
<g id="edge21" class="edge"><title>55&#45;&#45;56</title>
<path fill="none" stroke="#6aa84f" d="M165.67,-1470.55C171.398,-1470.03 177.26,-1469.51 182.877,-1469"/>
</g>
<!-- 30 -->
<g id="node43" class="node"><title>30</title>
<ellipse fill="#f7a8b8" stroke="black" cx="361.562" cy="-670.333" rx="32.4942" ry="18"/>
<text text-anchor="middle" x="361.562" y="-666.633" font-family="arial" font-size="14.00">Kiera</text>
</g>
<!-- 31 -->
<g id="node44" class="node"><title>31</title>
<ellipse fill="#f7a8b8" stroke="black" cx="418.528" cy="-559.25" rx="35.9954" ry="18"/>
<text text-anchor="middle" x="418.528" y="-555.55" font-family="arial" font-size="14.00">Camp</text>
</g>
<!-- 30&#45;&#45;31 -->
<g id="edge20" class="edge"><title>30&#45;&#45;31</title>
<path fill="none" stroke="#ff0000" d="M370.463,-652.977C381.102,-632.23 398.807,-597.706 409.502,-576.852"/>
</g>
<!-- 58 -->
<g id="node71" class="node"><title>58</title>
<ellipse fill="#f7a8b8" stroke="black" cx="562.889" cy="-1086.37" rx="51.9908" ry="18"/>
<text text-anchor="middle" x="562.889" y="-1082.67" font-family="arial" font-size="14.00">Alexandra</text>
</g>
<!-- 30&#45;&#45;58 -->
<g id="edge82" class="edge"><title>30&#45;&#45;58</title>
<path fill="none" stroke="#8e7cc3" d="M370.084,-687.944C402.94,-755.84 521.198,-1000.21 554.252,-1068.52"/>
</g>
<!-- 84 -->
<g id="node77" class="node"><title>84</title>
<ellipse fill="#f7a8b8" stroke="black" cx="576.045" cy="-675.548" rx="33.2948" ry="18"/>
<text text-anchor="middle" x="576.045" y="-671.848" font-family="arial" font-size="14.00">Olivia</text>
</g>
<!-- 30&#45;&#45;84 -->
<g id="edge2" class="edge"><title>30&#45;&#45;84</title>
<path fill="none" stroke="#ff0000" d="M394.137,-671.125C434.333,-672.103 502.312,-673.755 542.81,-674.74"/>
</g>
<!-- 31&#45;&#45;36 -->
<g id="edge3" class="edge"><title>31&#45;&#45;36</title>
<path fill="none" stroke="#f6b26b" d="M420.427,-541.23C427.905,-470.266 455.277,-210.493 462.828,-138.835"/>
</g>
<!-- 31&#45;&#45;84 -->
<g id="edge1" class="edge"><title>31&#45;&#45;84</title>
<path fill="none" stroke="#ff0000" d="M438.798,-574.216C469.21,-596.67 526.276,-638.802 556.348,-661.005"/>
</g>
<!-- 35 -->
<g id="node45" class="node"><title>35</title>
<ellipse fill="#f7a8b8" stroke="black" cx="324.871" cy="-768.508" rx="45.4919" ry="18"/>
<text text-anchor="middle" x="324.871" y="-764.808" font-family="arial" font-size="14.00">Mistress</text>
</g>
<!-- 1 -->
<g id="node46" class="node"><title>1</title>
<ellipse fill="#f7a8b8" stroke="black" cx="539.751" cy="-956.819" rx="35.9954" ry="18"/>
<text text-anchor="middle" x="539.751" y="-953.119" font-family="arial" font-size="14.00">Lucca</text>
</g>
<!-- 1&#45;&#45;35 -->
<g id="edge17" class="edge"><title>1&#45;&#45;35</title>
<path fill="none" stroke="#8e7cc3" d="M521.8,-941.088C481.655,-905.907 384.926,-821.138 343.842,-785.133"/>
</g>
<!-- 4 -->
<g id="node49" class="node"><title>4</title>
<ellipse fill="#f7a8b8" stroke="black" cx="666.241" cy="-934.263" rx="27.0966" ry="18"/>
<text text-anchor="middle" x="666.241" y="-930.563" font-family="arial" font-size="14.00">Zoe</text>
</g>
<!-- 1&#45;&#45;4 -->
<g id="edge39" class="edge"><title>1&#45;&#45;4</title>
<path fill="none" stroke="#ff0000" d="M573.648,-950.775C594.431,-947.068 620.647,-942.393 639.874,-938.965"/>
</g>
<!-- 5 -->
<g id="node50" class="node"><title>5</title>
<ellipse fill="#f7a8b8" stroke="black" cx="647.371" cy="-1010.29" rx="31.6951" ry="18"/>
<text text-anchor="middle" x="647.371" y="-1006.59" font-family="arial" font-size="14.00">Alma</text>
</g>
<!-- 1&#45;&#45;5 -->
<g id="edge29" class="edge"><title>1&#45;&#45;5</title>
<path fill="none" stroke="#ff0000" d="M565.256,-969.491C582.784,-978.2 605.915,-989.692 623.158,-998.259"/>
</g>
<!-- 6 -->
<g id="node51" class="node"><title>6</title>
<ellipse fill="#f7a8b8" stroke="black" cx="553.547" cy="-877.82" rx="40.0939" ry="18"/>
<text text-anchor="middle" x="553.547" y="-874.12" font-family="arial" font-size="14.00">Martin?</text>
</g>
<!-- 1&#45;&#45;6 -->
<g id="edge46" class="edge"><title>1&#45;&#45;6</title>
<path fill="none" stroke="#ff0000" d="M542.951,-938.497C545.196,-925.643 548.182,-908.542 550.412,-895.771"/>
</g>
<!-- 7 -->
<g id="node52" class="node"><title>7</title>
<ellipse fill="#f7a8b8" stroke="black" cx="681.97" cy="-1165.47" rx="38.1938" ry="18"/>
<text text-anchor="middle" x="681.97" y="-1161.77" font-family="arial" font-size="14.00">Saskia</text>
</g>
<!-- 1&#45;&#45;7 -->
<g id="edge47" class="edge"><title>1&#45;&#45;7</title>
<path fill="none" stroke="#ff0000" d="M551.39,-973.894C578.058,-1013.02 643.348,-1108.81 670.171,-1148.16"/>
</g>
<!-- 8 -->
<g id="node53" class="node"><title>8</title>
<ellipse fill="#f7a8b8" stroke="black" cx="401.361" cy="-982.867" rx="36.2938" ry="18"/>
<text text-anchor="middle" x="401.361" y="-979.167" font-family="arial" font-size="14.00">Althea</text>
</g>
<!-- 1&#45;&#45;8 -->
<g id="edge62" class="edge"><title>1&#45;&#45;8</title>
<path fill="none" stroke="#ff0000" d="M506.251,-963.125C484.812,-967.16 457.079,-972.38 435.514,-976.439"/>
</g>
<!-- 11 -->
<g id="node55" class="node"><title>11</title>
<ellipse fill="#f7a8b8" stroke="black" cx="223.766" cy="-906.939" rx="31.3957" ry="18"/>
<text text-anchor="middle" x="223.766" y="-903.239" font-family="arial" font-size="14.00">Alice</text>
</g>
<!-- 1&#45;&#45;11 -->
<g id="edge31" class="edge"><title>1&#45;&#45;11</title>
<path fill="none" stroke="#8e7cc3" d="M505.635,-951.434C443.557,-941.635 313.101,-921.041 254.004,-911.712"/>
</g>
<!-- 12 -->
<g id="node56" class="node"><title>12</title>
<ellipse fill="#f7a8b8" stroke="black" cx="284.557" cy="-997.426" rx="31.6951" ry="18"/>
<text text-anchor="middle" x="284.557" y="-993.726" font-family="arial" font-size="14.00">Zoey</text>
</g>
<!-- 1&#45;&#45;12 -->
<g id="edge53" class="edge"><title>1&#45;&#45;12</title>
<path fill="none" stroke="#8e7cc3" d="M505.6,-962.254C455.619,-970.207 363.295,-984.898 315.316,-992.532"/>
</g>
<!-- 24 -->
<g id="node68" class="node"><title>24</title>
<ellipse fill="#f7a8b8" stroke="black" cx="325.591" cy="-899.384" rx="30.5947" ry="18"/>
<text text-anchor="middle" x="325.591" y="-895.684" font-family="arial" font-size="14.00">Cam</text>
</g>
<!-- 1&#45;&#45;24 -->
<g id="edge37" class="edge"><title>1&#45;&#45;24</title>
<path fill="none" stroke="#8e7cc3" d="M508.151,-948.345C466.381,-937.142 393.433,-917.578 353.565,-906.886"/>
</g>
<!-- 1&#45;&#45;58 -->
<g id="edge90" class="edge"><title>1&#45;&#45;58</title>
<path fill="none" stroke="#8e7cc3" d="M542.968,-974.832C547.364,-999.443 555.204,-1043.34 559.624,-1068.09"/>
</g>
<!-- 88 -->
<g id="node81" class="node"><title>88</title>
<ellipse fill="#f7a8b8" stroke="black" cx="728.199" cy="-1086.34" rx="30.5947" ry="18"/>
<text text-anchor="middle" x="728.199" y="-1082.64" font-family="arial" font-size="14.00">Luna</text>
</g>
<!-- 1&#45;&#45;88 -->
<g id="edge106" class="edge"><title>1&#45;&#45;88</title>
<path fill="none" stroke="#ff0000" d="M561.002,-971.425C597.676,-996.63 672.353,-1047.95 708.166,-1072.57"/>
</g>
<!-- __0:cluster_10 -->
<!-- 1&#45;&#45;__0:cluster_10 -->
<g id="edge107" class="edge"><title>1&#45;&#45;__0:cluster_10</title>
<path fill="none" stroke="#8e7cc3" d="M527.336,-974.012C506.249,-1003.22 461.804,-1064.77 421.642,-1120.38"/>
</g>
<!-- __1:cluster_25 -->
<!-- 1&#45;&#45;__1:cluster_25 -->
<g id="edge108" class="edge"><title>1&#45;&#45;__1:cluster_25</title>
<path fill="none" stroke="#ff0000" d="M562.103,-942.589C596.01,-921.002 663.9,-877.78 733.543,-833.442"/>
</g>
<!-- 2 -->
<g id="node47" class="node"><title>2</title>
<ellipse fill="#f7a8b8" stroke="black" cx="144.402" cy="-408.525" rx="50.8918" ry="18"/>
<text text-anchor="middle" x="144.402" y="-404.825" font-family="arial" font-size="14.00">Luminous</text>
</g>
<!-- __2:cluster_57 -->
<!-- 2&#45;&#45;__2:cluster_57 -->
<g id="edge109" class="edge"><title>2&#45;&#45;__2:cluster_57</title>
<path fill="none" stroke="#ff0000" d="M159.214,-426.087C178.194,-448.592 212.956,-489.809 248.86,-532.379"/>
</g>
<!-- 3 -->
<g id="node48" class="node"><title>3</title>
<ellipse fill="#f7a8b8" stroke="black" cx="1131.07" cy="-999.709" rx="30.5947" ry="18"/>
<text text-anchor="middle" x="1131.07" y="-996.009" font-family="arial" font-size="14.00">Nora</text>
</g>
<!-- 17 -->
<g id="node61" class="node"><title>17</title>
<ellipse fill="#f7a8b8" stroke="black" cx="1258.7" cy="-779.677" rx="51.9908" ry="18"/>
<text text-anchor="middle" x="1258.7" y="-775.977" font-family="arial" font-size="14.00">Samantha</text>
</g>
<!-- 3&#45;&#45;17 -->
<g id="edge43" class="edge"><title>3&#45;&#45;17</title>
<path fill="none" stroke="#ff0000" d="M1141.09,-982.443C1164.83,-941.514 1224.33,-838.93 1248.38,-797.473"/>
</g>
<!-- __3:cluster_25 -->
<!-- 3&#45;&#45;__3:cluster_25 -->
<g id="edge110" class="edge"><title>3&#45;&#45;__3:cluster_25</title>
<path fill="none" stroke="#ff0000" d="M1120.82,-982.487C1112.41,-968.351 1099.45,-946.576 1084.35,-921.201"/>
</g>
<!-- 4&#45;&#45;5 -->
<g id="edge30" class="edge"><title>4&#45;&#45;5</title>
<path fill="none" stroke="#6aa84f" d="M661.769,-952.28C658.761,-964.399 654.812,-980.309 651.811,-992.401"/>
</g>
<!-- 4&#45;&#45;6 -->
<g id="edge63" class="edge"><title>4&#45;&#45;6</title>
<path fill="none" stroke="#6aa84f" d="M644.245,-923.246C626.054,-914.135 600.138,-901.155 580.664,-891.401"/>
</g>
<!-- 19 -->
<g id="node63" class="node"><title>19</title>
<ellipse fill="#f7a8b8" stroke="black" cx="886.037" cy="-1006.41" rx="27" ry="18"/>
<text text-anchor="middle" x="886.037" y="-1002.71" font-family="arial" font-size="14.00">Jay</text>
</g>
<!-- 4&#45;&#45;19 -->
<g id="edge32" class="edge"><title>4&#45;&#45;19</title>
<path fill="none" stroke="#8e7cc3" d="M691.027,-942.399C733.465,-956.33 819.533,-984.583 861.677,-998.418"/>
</g>
<!-- 20 -->
<g id="node64" class="node"><title>20</title>
<ellipse fill="#f7a8b8" stroke="black" cx="996.082" cy="-1043.37" rx="42.7926" ry="18"/>
<text text-anchor="middle" x="996.082" y="-1039.67" font-family="arial" font-size="14.00">Celeste</text>
</g>
<!-- 4&#45;&#45;20 -->
<g id="edge33" class="edge"><title>4&#45;&#45;20</title>
<path fill="none" stroke="#ff0000" d="M690.764,-942.374C748.99,-961.635 895.663,-1010.15 962.255,-1032.18"/>
</g>
<!-- 23 -->
<g id="node67" class="node"><title>23</title>
<ellipse fill="#f7a8b8" stroke="black" cx="434.585" cy="-879.582" rx="38.1938" ry="18"/>
<text text-anchor="middle" x="434.585" y="-875.882" font-family="arial" font-size="14.00">Evelyn</text>
</g>
<!-- 4&#45;&#45;23 -->
<g id="edge36" class="edge"><title>4&#45;&#45;23</title>
<path fill="none" stroke="#6aa84f" d="M640.118,-928.096C598.111,-918.181 515.547,-898.692 468.861,-887.672"/>
</g>
<!-- 4&#45;&#45;24 -->
<g id="edge38" class="edge"><title>4&#45;&#45;24</title>
<path fill="none" stroke="#8e7cc3" d="M639.226,-931.497C576.595,-925.084 421.818,-909.236 355.998,-902.497"/>
</g>
<!-- 4&#45;&#45;58 -->
<g id="edge85" class="edge"><title>4&#45;&#45;58</title>
<path fill="none" stroke="#ff0000" d="M654.984,-950.83C635.417,-979.626 595.296,-1038.67 575.089,-1068.41"/>
</g>
<!-- 4&#45;&#45;84 -->
<g id="edge88" class="edge"><title>4&#45;&#45;84</title>
<path fill="none" stroke="#ff0000" d="M660.042,-916.48C643.564,-869.217 598.815,-740.86 582.288,-693.455"/>
</g>
<!-- 85 -->
<g id="node78" class="node"><title>85</title>
<ellipse fill="#f7a8b8" stroke="black" cx="837.437" cy="-1109.66" rx="38.1938" ry="18"/>
<text text-anchor="middle" x="837.437" y="-1105.96" font-family="arial" font-size="14.00">Caitlyn</text>
</g>
<!-- 4&#45;&#45;85 -->
<g id="edge89" class="edge"><title>4&#45;&#45;85</title>
<path fill="none" stroke="#ff0000" d="M681.134,-949.521C713.105,-982.275 788.086,-1059.09 821.213,-1093.03"/>
</g>
<!-- __4:cluster_25 -->
<!-- 4&#45;&#45;__4:cluster_25 -->
<g id="edge111" class="edge"><title>4&#45;&#45;__4:cluster_25</title>
<path fill="none" stroke="#ff0000" d="M683.146,-920.047C695.199,-909.912 712.884,-895.04 733.51,-877.696"/>
</g>
<!-- __5:cluster_28 -->
<!-- 4&#45;&#45;__5:cluster_28 -->
<g id="edge112" class="edge"><title>4&#45;&#45;__5:cluster_28</title>
<path fill="none" stroke="#ff0000" d="M664.197,-916.189C656.383,-847.107 628.117,-597.201 613.575,-468.635"/>
</g>
<!-- 5&#45;&#45;6 -->
<g id="edge48" class="edge"><title>5&#45;&#45;6</title>
<path fill="none" stroke="#ff0000" d="M635.488,-993.512C617.638,-968.309 584.068,-920.911 565.929,-895.302"/>
</g>
<!-- 5&#45;&#45;8 -->
<g id="edge99" class="edge"><title>5&#45;&#45;8</title>
<path fill="none" stroke="#8e7cc3" d="M615.964,-1006.79C570.109,-1001.68 485.074,-992.198 436.957,-986.835"/>
</g>
<!-- __6:cluster_25 -->
<!-- 5&#45;&#45;__6:cluster_25 -->
<g id="edge113" class="edge"><title>5&#45;&#45;__6:cluster_25</title>
<path fill="none" stroke="#ff0000" d="M662.798,-994.25C678.159,-978.281 703.683,-951.744 733.357,-920.894"/>
</g>
<!-- 18 -->
<g id="node62" class="node"><title>18</title>
<ellipse fill="#f7a8b8" stroke="black" cx="295.623" cy="-404.264" rx="42.4939" ry="18"/>
<text text-anchor="middle" x="295.623" y="-400.564" font-family="arial" font-size="14.00">Tamara</text>
</g>
<!-- 6&#45;&#45;18 -->
<g id="edge58" class="edge"><title>6&#45;&#45;18</title>
<path fill="none" stroke="#ff0000" d="M543.907,-860.12C503.211,-785.401 345.701,-496.209 305.174,-421.801"/>
</g>
<!-- __7:cluster_25 -->
<!-- 6&#45;&#45;__7:cluster_25 -->
<g id="edge114" class="edge"><title>6&#45;&#45;__7:cluster_25</title>
<path fill="none" stroke="#ff0000" d="M581.746,-864.861C614.832,-849.655 672.883,-822.977 733.248,-795.235"/>
</g>
<!-- 7&#45;&#45;88 -->
<g id="edge81" class="edge"><title>7&#45;&#45;88</title>
<path fill="none" stroke="#ff0000" d="M692.23,-1147.91C699.944,-1134.7 710.459,-1116.7 718.127,-1103.58"/>
</g>
<!-- 8&#45;&#45;23 -->
<g id="edge61" class="edge"><title>8&#45;&#45;23</title>
<path fill="none" stroke="#6aa84f" d="M407.148,-964.876C413.209,-946.034 422.675,-916.607 428.753,-897.713"/>
</g>
<!-- __8:cluster_10 -->
<!-- 8&#45;&#45;__8:cluster_10 -->
<g id="edge115" class="edge"><title>8&#45;&#45;__8:cluster_10</title>
<path fill="none" stroke="#ff0000" d="M397.041,-1000.76C390.92,-1026.11 379.231,-1074.52 368.13,-1120.49"/>
</g>
<!-- 9 -->
<g id="node54" class="node"><title>9</title>
<ellipse fill="#f7a8b8" stroke="black" cx="448.296" cy="-1405.95" rx="31.3957" ry="18"/>
<text text-anchor="middle" x="448.296" y="-1402.25" font-family="arial" font-size="14.00">Bella</text>
</g>
<!-- 9&#45;&#45;55 -->
<g id="edge103" class="edge"><title>9&#45;&#45;55</title>
<path fill="none" stroke="#8e7cc3" d="M418.888,-1412.17C359.779,-1424.68 226.747,-1452.84 162.542,-1466.43"/>
</g>
<!-- 16 -->
<g id="node60" class="node"><title>16</title>
<ellipse fill="#f7a8b8" stroke="black" cx="127.494" cy="-1381.17" rx="44.393" ry="18"/>
<text text-anchor="middle" x="127.494" y="-1377.47" font-family="arial" font-size="14.00">Michelle</text>
</g>
<!-- 9&#45;&#45;16 -->
<g id="edge42" class="edge"><title>9&#45;&#45;16</title>
<path fill="none" stroke="#8e7cc3" d="M417.245,-1403.55C359.772,-1399.11 236.696,-1389.6 170.97,-1384.52"/>
</g>
<!-- 9&#45;&#45;58 -->
<g id="edge84" class="edge"><title>9&#45;&#45;58</title>
<path fill="none" stroke="#ff0000" d="M454.62,-1388.31C474.608,-1332.57 536.287,-1160.55 556.443,-1104.34"/>
</g>
<!-- __9:cluster_10 -->
<!-- 9&#45;&#45;__9:cluster_10 -->
<g id="edge116" class="edge"><title>9&#45;&#45;__9:cluster_10</title>
<path fill="none" stroke="#8e7cc3" d="M437.841,-1388.92C430.688,-1377.27 420.523,-1360.71 409.451,-1342.68"/>
</g>
<!-- 11&#45;&#45;12 -->
<g id="edge52" class="edge"><title>11&#45;&#45;12</title>
<path fill="none" stroke="#ff0000" d="M229.516,-924.762C238.401,-941.523 254.837,-966.223 267.577,-982.119"/>
</g>
<!-- 11&#45;&#45;12 -->
<g id="edge57" class="edge"><title>11&#45;&#45;12</title>
<path fill="none" stroke="#ffff00" d="M240.673,-922.156C253.41,-938.033 269.872,-962.76 278.78,-979.552"/>
</g>
<!-- 13 -->
<g id="node57" class="node"><title>13</title>
<ellipse fill="#f7a8b8" stroke="black" cx="168.173" cy="-1000.16" rx="33.5952" ry="18"/>
<text text-anchor="middle" x="168.173" y="-996.461" font-family="arial" font-size="14.00">Yoshi</text>
</g>
<!-- 11&#45;&#45;13 -->
<g id="edge41" class="edge"><title>11&#45;&#45;13</title>
<path fill="none" stroke="#ff0000" d="M213.569,-924.037C203.601,-940.753 188.503,-966.07 178.493,-982.855"/>
</g>
<!-- 14 -->
<g id="node58" class="node"><title>14</title>
<ellipse fill="#f7a8b8" stroke="black" cx="149.972" cy="-754.173" rx="27" ry="18"/>
<text text-anchor="middle" x="149.972" y="-750.473" font-family="arial" font-size="14.00">Twi</text>
</g>
<!-- 11&#45;&#45;14 -->
<g id="edge54" class="edge"><title>11&#45;&#45;14</title>
<path fill="none" stroke="#ff0000" d="M215.3,-889.415C201.066,-859.947 172.507,-800.823 158.339,-771.493"/>
</g>
<!-- 87 -->
<g id="node80" class="node"><title>87</title>
<ellipse fill="#f7a8b8" stroke="black" cx="120.5" cy="-883.11" rx="27.8951" ry="18"/>
<text text-anchor="middle" x="120.5" y="-879.41" font-family="arial" font-size="14.00">Tavi</text>
</g>
<!-- 11&#45;&#45;87 -->
<g id="edge105" class="edge"><title>11&#45;&#45;87</title>
<path fill="none" stroke="#6aa84f" d="M194.726,-900.238C179.693,-896.769 161.477,-892.565 146.853,-889.191"/>
</g>
<!-- 12&#45;&#45;13 -->
<g id="edge64" class="edge"><title>12&#45;&#45;13</title>
<path fill="none" stroke="#ff0000" d="M252.447,-998.181C236.837,-998.548 218.07,-998.988 202.213,-999.361"/>
</g>
<!-- 86 -->
<g id="node79" class="node"><title>86</title>
<ellipse fill="#55cdfc" stroke="black" cx="36.4462" cy="-733.163" rx="36.2938" ry="18"/>
<text text-anchor="middle" x="36.4462" y="-729.463" font-family="arial" font-size="14.00">Jesse</text>
</g>
<!-- 14&#45;&#45;86 -->
<g id="edge79" class="edge"><title>14&#45;&#45;86</title>
<path fill="none" stroke="#ff0000" d="M123.927,-749.353C108.085,-746.421 87.6753,-742.644 70.5547,-739.476"/>
</g>
<!-- 15 -->
<g id="node59" class="node"><title>15</title>
<ellipse fill="#f7a8b8" stroke="black" cx="1230.83" cy="-991.016" rx="28.6953" ry="18"/>
<text text-anchor="middle" x="1230.83" y="-987.316" font-family="arial" font-size="14.00">Ellie</text>
</g>
<!-- __10:cluster_25 -->
<!-- 15&#45;&#45;__10:cluster_25 -->
<g id="edge117" class="edge"><title>15&#45;&#45;__10:cluster_25</title>
<path fill="none" stroke="#ff0000" d="M1216.13,-975.549C1204.22,-963.024 1185.93,-943.774 1164.38,-921.102"/>
</g>
<!-- 16&#45;&#45;55 -->
<g id="edge102" class="edge"><title>16&#45;&#45;55</title>
<path fill="none" stroke="#ff0000" d="M127.303,-1399.52C127.134,-1415.8 126.887,-1439.47 126.718,-1455.74"/>
</g>
<!-- __11:cluster_25 -->
<!-- 17&#45;&#45;__11:cluster_25 -->
<g id="edge118" class="edge"><title>17&#45;&#45;__11:cluster_25</title>
<path fill="none" stroke="#ff0000" d="M1217.71,-768.511C1203.2,-764.557 1185.71,-759.792 1166.7,-754.613"/>
</g>
<!-- __12:cluster_25 -->
<!-- 19&#45;&#45;__12:cluster_25 -->
<g id="edge119" class="edge"><title>19&#45;&#45;__12:cluster_25</title>
<path fill="none" stroke="#ff0000" d="M889.756,-988.36C892.919,-973.007 897.848,-949.077 903.557,-921.365"/>
</g>
<!-- 21 -->
<g id="node65" class="node"><title>21</title>
<ellipse fill="#f7a8b8" stroke="black" cx="1112.28" cy="-1118.42" rx="32.4942" ry="18"/>
<text text-anchor="middle" x="1112.28" y="-1114.72" font-family="arial" font-size="14.00">Abby</text>
</g>
<!-- 20&#45;&#45;21 -->
<g id="edge34" class="edge"><title>20&#45;&#45;21</title>
<path fill="none" stroke="#ff0000" d="M1019.6,-1058.56C1040.42,-1072.01 1070.56,-1091.48 1090.76,-1104.52"/>
</g>
<!-- 22 -->
<g id="node66" class="node"><title>22</title>
<ellipse fill="#f7a8b8" stroke="black" cx="1001.01" cy="-1197.28" rx="44.6926" ry="18"/>
<text text-anchor="middle" x="1001.01" y="-1193.58" font-family="arial" font-size="14.00">Ramsey</text>
</g>
<!-- 20&#45;&#45;22 -->
<g id="edge45" class="edge"><title>20&#45;&#45;22</title>
<path fill="none" stroke="#ff0000" d="M996.666,-1061.63C997.615,-1091.25 999.478,-1149.44 1000.43,-1179.04"/>
</g>
<!-- __13:cluster_25 -->
<!-- 20&#45;&#45;__13:cluster_25 -->
<g id="edge120" class="edge"><title>20&#45;&#45;__13:cluster_25</title>
<path fill="none" stroke="#ff0000" d="M993.673,-1025.16C990.806,-1003.5 985.679,-964.748 979.923,-921.24"/>
</g>
<!-- 26 -->
<g id="node69" class="node"><title>26</title>
<ellipse fill="black" stroke="black" cx="140.366" cy="-576.684" rx="35.9954" ry="18"/>
<text text-anchor="middle" x="140.366" y="-572.984" font-family="arial" font-size="14.00">Skylar</text>
</g>
<!-- 26&#45;&#45;30 -->
<g id="edge18" class="edge"><title>26&#45;&#45;30</title>
<path fill="none" stroke="#ff0000" d="M167.933,-588.355C211.015,-606.595 293.709,-641.606 335.711,-659.389"/>
</g>
<!-- 53 -->
<g id="node70" class="node"><title>53</title>
<ellipse fill="#f7a8b8" stroke="black" cx="283.562" cy="-260.123" rx="41.6928" ry="18"/>
<text text-anchor="middle" x="283.562" y="-256.423" font-family="arial" font-size="14.00">Jemma</text>
</g>
<!-- __14:cluster_57 -->
<!-- 53&#45;&#45;__14:cluster_57 -->
<g id="edge121" class="edge"><title>53&#45;&#45;__14:cluster_57</title>
<path fill="none" stroke="#ff0000" d="M287.338,-278.268C296.468,-322.141 320.449,-437.374 340.268,-532.611"/>
</g>
<!-- 73 -->
<g id="node72" class="node"><title>73</title>
<ellipse fill="#f7a8b8" stroke="black" cx="1167.14" cy="-360.296" rx="27" ry="18"/>
<text text-anchor="middle" x="1167.14" y="-356.596" font-family="arial" font-size="14.00">Kat</text>
</g>
<!-- 81 -->
<g id="node74" class="node"><title>81</title>
<ellipse fill="#f7a8b8" stroke="black" cx="1387.16" cy="-748.343" rx="36.2938" ry="18"/>
<text text-anchor="middle" x="1387.16" y="-744.643" font-family="arial" font-size="14.00">Grace</text>
</g>
<!-- 82 -->
<g id="node75" class="node"><title>82</title>
<ellipse fill="#f7a8b8" stroke="black" cx="935.285" cy="-320.984" rx="33.2948" ry="18"/>
<text text-anchor="middle" x="935.285" y="-317.284" font-family="arial" font-size="14.00">Alyss</text>
</g>
<!-- 83 -->
<g id="node76" class="node"><title>83</title>
<ellipse fill="#55cdfc" stroke="black" cx="1296.78" cy="-645.405" rx="40.8928" ry="18"/>
<text text-anchor="middle" x="1296.78" y="-641.705" font-family="arial" font-size="14.00">Connor</text>
</g>
<!-- 86&#45;&#45;87 -->
<g id="edge100" class="edge"><title>86&#45;&#45;87</title>
<path fill="none" stroke="#ff0000" d="M46.2528,-750.658C62.4491,-779.551 94.6009,-836.907 110.756,-865.727"/>
</g>
<!-- __15:cluster_10 -->
<!-- __15:cluster_10&#45;&#45;16 -->
<g id="edge122" class="edge"><title>__15:cluster_10&#45;&#45;16</title>
<path fill="none" stroke="#ff0000" d="M211.684,-1322.29C187.833,-1338.97 165.563,-1354.55 149.926,-1365.48"/>
</g>
<!-- __16:cluster_10 -->
<!-- __16:cluster_10&#45;&#45;58 -->
<g id="edge123" class="edge"><title>__16:cluster_10&#45;&#45;58</title>
<path fill="none" stroke="#8e7cc3" d="M470.835,-1146.72C496.787,-1129.71 521.326,-1113.62 538.531,-1102.34"/>
</g>
<!-- __17:cluster_25 -->
<!-- __17:cluster_25&#45;&#45;36 -->
<g id="edge124" class="edge"><title>__17:cluster_25&#45;&#45;36</title>
<path fill="none" stroke="#ff0000" d="M759.657,-469.92C647.331,-336.793 519.327,-185.083 478.219,-136.363"/>
</g>
<!-- __18:cluster_25 -->
<!-- __18:cluster_25&#45;&#45;81 -->
<g id="edge125" class="edge"><title>__18:cluster_25&#45;&#45;81</title>
<path fill="none" stroke="#ff0000" d="M1166.69,-721.735C1238.39,-730.389 1310.37,-739.075 1351.75,-744.069"/>
</g>
<!-- __19:cluster_25 -->
<!-- __19:cluster_25&#45;&#45;82 -->
<g id="edge126" class="edge"><title>__19:cluster_25&#45;&#45;82</title>
<path fill="none" stroke="#ff0000" d="M941.159,-469.846C938.998,-415.069 937.017,-364.876 936,-339.114"/>
</g>
<!-- __20:cluster_25 -->
<!-- __20:cluster_25&#45;&#45;83 -->
<g id="edge127" class="edge"><title>__20:cluster_25&#45;&#45;83</title>
<path fill="none" stroke="#ff0000" d="M1166.69,-664.236C1201.59,-659.183 1234,-654.493 1257.74,-651.057"/>
</g>
<!-- __21:cluster_25 -->
<!-- __22:cluster_28 -->
<!-- __21:cluster_25&#45;&#45;__22:cluster_28 -->
<g id="edge128" class="edge"><title>__21:cluster_25&#45;&#45;__22:cluster_28</title>
<path fill="none" stroke="#ff0000" d="M733.364,-504.446C719.273,-492.017 705.602,-479.959 692.762,-468.633"/>
</g>
<!-- __23:cluster_25 -->
<!-- __24:cluster_57 -->
<!-- __23:cluster_25&#45;&#45;__24:cluster_57 -->
<g id="edge129" class="edge"><title>__23:cluster_25&#45;&#45;__24:cluster_57</title>
<path fill="none" stroke="#ff0000" d="M733.302,-688.339C655.769,-685.745 570.765,-682.902 502.501,-680.618"/>
</g>
</g>
</svg>
